<svg id="Layer_1" data-name="Layer 1" xmlns="http://www.w3.org/2000/svg" viewBox="0 0 31.18 28.35"><defs><style>.cls-1{fill:#fff;}.cls-2{fill:blue;}.cls-3{fill:red;}</style></defs><title>iconengleza</title><path class="cls-1" d="M12.45,18.54l-3.74,2.8c-.17-.17-.32-.36-.48-.54l4.49-3.36H9.83l-2.63,2c-.13-.21-.28-.4-.39-.61l1.78-1.33H6.23A10.19,10.19,0,0,1,5.85,16h8v7.94a9.72,9.72,0,0,1-1.45-.35Z"/><path class="cls-1" d="M18.73,18.54l3.74,2.8c.17-.17.32-.36.48-.54l-4.49-3.36h2.9l2.63,2c.13-.21.28-.4.39-.61L22.6,17.46H25A10.19,10.19,0,0,0,25.33,16h-8v7.94a9.72,9.72,0,0,0,1.45-.35Z"/><path class="cls-2" d="M8.72,21.34l3.74-2.8V23.6A13.45,13.45,0,0,1,8.72,21.34Z"/><path class="cls-2" d="M24.38,18.8,22.6,17.46H25A6.74,6.74,0,0,1,24.38,18.8Z"/><path class="cls-2" d="M6.8,18.8l1.78-1.33H6.23A6.74,6.74,0,0,0,6.8,18.8Z"/><path class="cls-2" d="M22.46,21.34l-3.74-2.8V23.6A13.45,13.45,0,0,0,22.46,21.34Z"/><path class="cls-3" d="M24,19.43a9.93,9.93,0,0,1-1,1.39l-4.51-3.38h2.89Z"/><path class="cls-3" d="M12.72,17.43,8.24,20.8,8,20.54a9.93,9.93,0,0,1-.63-.84l-.18-.29,2.63-2Z"/><path class="cls-1" d="M12.45,9.83,8.72,7c-.17.17-.32.36-.48.54l4.49,3.36H9.83L7.19,9c-.13.21-.28.4-.39.61l1.78,1.33H6.23a10.19,10.19,0,0,0-.38,1.45h8V4.42a9.72,9.72,0,0,0-1.45.35Z"/><path class="cls-1" d="M18.73,9.83,22.46,7c.17.17.32.36.48.54l-4.49,3.36h2.9L24,9c.13.21.28.4.39.61L22.6,10.91H25a10.19,10.19,0,0,1,.38,1.45h-8V4.42a9.72,9.72,0,0,1,1.45.35Z"/><path class="cls-2" d="M8.72,7l3.74,2.8V4.77A13.45,13.45,0,0,0,8.72,7Z"/><path class="cls-2" d="M24.38,9.57,22.6,10.91H25A6.74,6.74,0,0,0,24.38,9.57Z"/><path class="cls-2" d="M6.8,9.57l1.78,1.33H6.23A6.74,6.74,0,0,1,6.8,9.57Z"/><path class="cls-2" d="M22.46,7l-3.74,2.8V4.77A13.45,13.45,0,0,1,22.46,7Z"/><path class="cls-3" d="M24,8.94a9.93,9.93,0,0,0-1-1.39l-4.51,3.38h2.89Z"/><path class="cls-3" d="M12.72,10.94,8.24,7.57,8,7.83a9.93,9.93,0,0,0-.63.84L7.19,9l2.63,2Z"/><path class="cls-1" d="M25.35,12.43c0,.06,0,.13,0,.19S25.36,12.5,25.35,12.43Z"/><path class="cls-3" d="M5.84,12.36v.08l0-.08Z"/><path class="cls-3" d="M17,24a9.7,9.7,0,0,1-1.42.12A9.59,9.59,0,0,0,17,24Z"/><path class="cls-3" d="M5.85,16h0l0-.09Z"/><path class="cls-3" d="M15.59,24.09A9.7,9.7,0,0,1,14.17,24,9.58,9.58,0,0,0,15.59,24.09Z"/><path class="cls-3" d="M25.35,15.92l0,.09h0Z"/><path class="cls-3" d="M25.34,12.36h0l0,.08Z"/><path class="cls-3" d="M15.59,4.25A9.71,9.71,0,0,1,17,4.37,9.59,9.59,0,0,0,15.59,4.25Z"/><path class="cls-1" d="M13.9,4.41h0l.27,0Z"/><path class="cls-1" d="M7.38,8.67A9.93,9.93,0,0,1,8,7.83,9.88,9.88,0,0,0,7.38,8.67Z"/><path class="cls-3" d="M7.17,8.94l0,0,.18-.29C7.31,8.77,7.23,8.85,7.17,8.94Z"/><path class="cls-3" d="M8.21,7.56c-.08.08-.13.19-.2.27l.23-.26Z"/><path class="cls-3" d="M25.38,12.63c0-.06,0-.13,0-.19l0-.08h-8V4.41l-.27,0a9.71,9.71,0,0,0-1.42-.12,9.7,9.7,0,0,0-1.42.12l-.27,0v7.95h-8l0,.08c0,.06,0,.13,0,.19a8.94,8.94,0,0,0,0,3.12c0,.06,0,.12,0,.18l0,.09h8v7.93l.27,0a9.7,9.7,0,0,0,1.42.12A9.7,9.7,0,0,0,17,24l.27,0V16h8l0-.09c0-.06,0-.12,0-.18a8.94,8.94,0,0,0,0-3.12Z"/><path class="cls-3" d="M24,8.94a9.93,9.93,0,0,0-1-1.39l-4.51,3.38h2.89Z"/><path class="cls-3" d="M12.72,10.94,8.24,7.57,8,7.83a9.93,9.93,0,0,0-.63.84L7.19,9l2.63,2Z"/><path class="cls-1" d="M15.59,27.93a13.69,13.69,0,0,1-7.26-2.07l-5.12,2a1,1,0,0,1-1.31-1.26l1.84-5.4a13.76,13.76,0,1,1,11.84,6.76ZM9.06,24a11.75,11.75,0,1,0-3.38-3.44,1,1,0,0,1,.1.86l-1.3,3.82,3.6-1.38A1,1,0,0,1,9.06,24Z"/></svg>