<?xml version="1.0" encoding="utf-8"?>
<!-- Generator: Adobe Illustrator 21.1.0, SVG Export Plug-In . SVG Version: 6.00 Build 0)  -->
<svg version="1.1" id="Layer_1" xmlns="http://www.w3.org/2000/svg" xmlns:xlink="http://www.w3.org/1999/xlink" x="0px" y="0px"
	 viewBox="0 0 31.2 28.3" style="enable-background:new 0 0 31.2 28.3;" xml:space="preserve">
<style type="text/css">
	.st0{fill:#FFFFFF;}
	.st1{fill:#0000FF;}
	.st2{fill:#FF0000;}
	.st3{fill:#FBCA00;}
	.st4{fill:#EB0000;}
</style>
<path class="st0" d="M29.4,18.7V6.6c0-0.6-0.4-1-1-1h-7.2c-0.5-2.9-3-5.2-6-5.2s-5.6,2.2-6,5.2H2.9c-0.6,0-1,0.4-1,1v12.2
	c0,0,0,0,0,0v4.4c0,2.6,2.1,4.6,4.6,4.6h18.2c2.6,0,4.6-2.1,4.6-4.6L29.4,18.7C29.4,18.8,29.4,18.7,29.4,18.7z M15.2,2.4
	c1.9,0,3.6,1.4,4,3.2h-8C11.6,3.8,13.3,2.4,15.2,2.4z M3.9,7.6h23.5v10.2h-7.9v-1.9c0-0.6-0.4-1-1-1h-5.7c-0.6,0-1,0.4-1,1v1.9H3.9
	V7.6z M17.5,16.9v3.7h-3.7v-3.7H17.5z M27.4,23.3c0,1.5-1.2,2.6-2.6,2.6H6.6c-1.5,0-2.6-1.2-2.6-2.6v-3.5h7.9v1.8c0,0.6,0.4,1,1,1
	h5.7c0.6,0,1-0.4,1-1v-1.8h7.9V23.3z"/>
</svg>
