<svg id="Layer_1" data-name="Layer 1" xmlns="http://www.w3.org/2000/svg" viewBox="0 0 31.18 28.35"><defs><style>.cls-1{fill:#fff;}</style></defs><title>iconmagazine</title><path class="cls-1" d="M29.35,6.15,25.81.42H5.37L1.83,6.15v.28A5.31,5.31,0,0,0,7,11.88,5.06,5.06,0,0,0,11.15,9.6,5.46,5.46,0,0,0,20,9.6a5.06,5.06,0,0,0,4.18,2.28,4.86,4.86,0,0,0,1.71-.32V24.1a1.84,1.84,0,0,1-1.83,1.83H12.32V16.59h6.5v6.68a1,1,0,0,0,2,0V15.59a1,1,0,0,0-1-1h-8.5a1,1,0,0,0-1,1V25.93H7.07A1.84,1.84,0,0,1,5.24,24.1V14.16a1,1,0,1,0-2,0V24.1a3.84,3.84,0,0,0,3.83,3.83h17a3.84,3.84,0,0,0,3.83-3.83V10.19a5.59,5.59,0,0,0,1.43-3.76ZM24.69,2.42l1.86,3H20.81l-.74-3ZM18,2.42l.33,1.28.44,1.73H12.41l.52-2,.25-1Zm-11.51,0h4.63l-.77,3H4.63ZM7,9.88a3.21,3.21,0,0,1-3-2.5,1,1,0,0,0,.28.06H10A3.19,3.19,0,0,1,7,9.88Zm8.59,0a3.44,3.44,0,0,1-3.29-2.45h6.6A3.52,3.52,0,0,1,15.57,9.88Zm5.63-2.45h5.71a1,1,0,0,0,.31-.06,3.52,3.52,0,0,1-.87,1.57,1,1,0,0,0-.2.17,3,3,0,0,1-2,.77A3.19,3.19,0,0,1,21.21,7.43Z"/></svg>