<svg id="Layer_1" data-name="Layer 1" xmlns="http://www.w3.org/2000/svg" viewBox="0 0 31.18 28.35"><defs><style>.cls-1{fill:#fff;}</style></defs><title>iconcos-cumparaturi</title><path class="cls-1" d="M22.5,18.84A4.54,4.54,0,1,0,27,23.39,4.55,4.55,0,0,0,22.5,18.84Zm0,7.09A2.54,2.54,0,1,1,25,23.39,2.55,2.55,0,0,1,22.5,25.93Z"/><path class="cls-1" d="M28.35,6H8.52L7.87,1.28a1,1,0,0,0-1-.86h-4a1,1,0,0,0,0,2H6L8.35,19.31a4.49,4.49,0,0,0-2-.47,4.54,4.54,0,1,0,4.54,4.54s0-.07,0-.11,0,0,0,0l0-.12a4.53,4.53,0,0,0-.11-.79L8.8,8H27.35v6l-14.26,4.3a1,1,0,1,0,.58,1.91l15-4.51a1,1,0,0,0,.71-1V7A1,1,0,0,0,28.35,6Zm-22,19.93a2.54,2.54,0,1,1,2.44-3.22l.1.72A2.54,2.54,0,0,1,6.38,25.93Z"/></svg>