<svg id="Layer_1" data-name="Layer 1" xmlns="http://www.w3.org/2000/svg" viewBox="0 0 31.18 28.35"><defs><style>.cls-1{fill:#fff;}</style></defs><title>iconcontact</title><path class="cls-1" d="M23.3.83A72,72,0,0,0,7.88.83C3.42,1.46.42,4.24.42,7.74V9.61a2.71,2.71,0,0,0,2.73,2.69h3.1L2.44,22.77a3.82,3.82,0,0,0,.18,3.37,3.45,3.45,0,0,0,2.54,1.75,3.87,3.87,0,0,0,.54,0H25.47a4,4,0,0,0,.54,0,3.47,3.47,0,0,0,2.55-1.76,3.8,3.8,0,0,0,.21-3.33l-3.82-10.5H28a2.71,2.71,0,0,0,2.73-2.69V7.74C30.76,4.24,27.77,1.46,23.3.83Zm5.46,8.78a.71.71,0,0,1-.73.69H24.86a1.16,1.16,0,0,1-.75-.3l-.54-1.49,0,0a9.74,9.74,0,0,0-.36-1,2.78,2.78,0,0,0-1.9-1.59,27.74,27.74,0,0,0-5.68-.45,1,1,0,0,0,0,2,28.87,28.87,0,0,1,5,.33c.6.21.64.32.74.53s.2.56.31.92.3,1,.48,1.43a2.3,2.3,0,0,0,.18.35l4.59,12.59a1.83,1.83,0,0,1-.09,1.61,1.48,1.48,0,0,1-1.08.76l-.26,0H5.7l-.26,0a1.47,1.47,0,0,1-1.08-.76,1.85,1.85,0,0,1-.07-1.65L8.95,10.75c0-.05.06-.1.08-.16.14-.34.26-.73.38-1.1l.11-.29s0-.05,0-.08a8.21,8.21,0,0,1,.3-.84c.09-.19.16-.33.76-.55a1,1,0,0,0-.69-1.88A2.91,2.91,0,0,0,8,7.41a10.27,10.27,0,0,0-.45,1.25l-.05.17L7.12,9.92a1.06,1.06,0,0,1-.8.39H3.15a.71.71,0,0,1-.73-.69V7.74c0-2.46,2.31-4.44,5.74-4.92A70.54,70.54,0,0,1,23,2.81c3.43.49,5.74,2.47,5.74,4.92Z"/><path class="cls-1" d="M8.92,16.49a6.68,6.68,0,0,0,6.67,6.67,1,1,0,0,0,0-2,4.67,4.67,0,1,1,4.67-4.67,1,1,0,0,0,2,0,6.67,6.67,0,1,0-13.34,0Z"/></svg>