<svg id="Layer_1" data-name="Layer 1" xmlns="http://www.w3.org/2000/svg" viewBox="0 0 31.18 28.35"><defs><style>.cls-1{fill:#fff;}</style></defs><title>iconexpediere</title><path class="cls-1" d="M22.18,6.39v-5a1,1,0,0,0-1-1H1.33a1,1,0,0,0-1,1V15.59a1,1,0,0,0,1,1H21.18a1,1,0,0,0,1-1V8.45a8.87,8.87,0,0,1,6.67,8.4v2a3,3,0,0,1-1,2.23,4.52,4.52,0,0,0-8.09.6H12.08A4.52,4.52,0,0,0,4,21L2,19.12A1,1,0,0,0,.65,20.57l2.71,2.56c0,.09,0,.17,0,.25a4.53,4.53,0,0,0,9.06.29h7.1a4.53,4.53,0,0,0,9.06-.29c0-.1,0-.2,0-.31a4.88,4.88,0,0,0,2.33-4.24v-2A10.9,10.9,0,0,0,22.18,6.39Zm-2,3.53H15.59a1,1,0,0,0,0,2h4.59v2.67H2.33V2.42H20.18v3.7c-.21,0-.42,0-.63,0H11.26a1,1,0,0,0,0,2h8.29c.21,0,.42,0,.63,0Zm-12.3,16a2.54,2.54,0,1,1,2.4-3.36.93.93,0,0,0,0,.1,1,1,0,0,0,.14.49c0,.07,0,.15,0,.22A2.55,2.55,0,0,1,7.88,25.93Zm16.13,0a2.54,2.54,0,1,1,2.54-2.54A2.55,2.55,0,0,1,24,25.93Z"/></svg>