<svg xmlns="http://www.w3.org/2000/svg" viewBox="0 0 310 70" fill-rule="evenodd" fill="#0b5035"><path d="M84.53 40.62l1.5-1.07c-.34-.7-.65-1.45-.93-2.27l.3-.03c.4-.04.66-.32.6-.63s-.42-.52-.8-.5l-.45.04-.44-1.54.25-.01c.4-.02.7-.3.66-.6s-.38-.55-.77-.53h-.4l-.23-1.04h.01c.4 0 .7-.26.7-.57s-.35-.56-.74-.55h-.18l-.17-.96c.16-.1.27-.26.27-.44 0-.23-.18-.43-.43-.52l-.7-6.35c-.2-3 .54-7.45 1.2-11.86l.05-.3.24-1.8.06-.6c.12-3.24-.52-7.8-5.06-1.66L48.8 46.96c-1.47 1.94-2.93 1.6-2.97-.2l.68-40.12c-.12-5.46-3.64-1.34-4.78 1.07-4.18 8.85-9.3 15.83-16.6 23.03l-.98.93c-.22-.04-.43.02-.56.17a.43.43 0 0 0-.09.41c-.26.23-.53.45-.8.67l-.32-.25c-.3-.24-.74-.25-.95-.02s-.13.6.18.85l.2.15-.87.66-.48-.4c-.3-.25-.73-.28-.96-.06s-.16.6.14.85l.36.3-1.35.93-.5-.46c-.3-.26-.72-.32-.96-.12-.25.2-.2.58.08.84l.42.38a95.63 95.63 0 0 1-3.24 2.02C19.2 50.92 15.1 59.95 5 62.3c4.5 3.02 9.48 4.17 15.9 3.53.42-.4 1.77-.77 2.76-.1l3.86-.3 5.58-17.2-.64-2-3.14-.15-.86.07 1.82-4.04 3.8-4.32 1.4-1.46 5.17 22c.32 1.35 1.97 1.83 2.97.78l25.5-26.64.7 8.45-.01.2-.06.6-.03.22-.03.23-.04.24-.04.25-.1.52-.06.27-.06.28-.07.3-.08.3-.28.66-3.5-.58-1.94.56-6.2 18.85 3.93.9c.2-.13.7-.66 1.32-.4 8.08 3.37 17.4.93 19.4-1.3l-.06-.03c-6.64-3.3-5.82-11.93-2.57-16.85 1.35-2.04 3.07-3.88 5.16-5.5zm-57.27 7.44l-5.1 15.32c-.06.2-.3.27-.54.2-.24-.08-.38-.3-.32-.47l5.1-15.32c.06-.2.3-.27.54-.2s.4.3.32.47zm6.18-14.85c-.12.16-.4.2-.6.06-.2-.12-.28-.35-.16-.5 5.28-6.76 10.4-16.6 11.3-25.14.02-.2.23-.32.48-.28.24.04.42.24.4.43-.9 8.64-6.06 18.6-11.4 25.44zm34.54 13.56l-5.1 15.32c-.06.2-.3.27-.54.2-.24-.08-.38-.3-.32-.47l5.1-15.32c.06-.2.3-.27.54-.2s.38.28.32.47zm8.38-26.88c-1.64 4.18-2.72 8.5-2.93 13.06-.01.2-.22.33-.46.3s-.43-.22-.43-.42c.22-4.63 1.32-9.02 2.97-13.24s3.86-8.3 6.32-12.28c.1-.17.37-.22.6-.1s.32.33.2.5c-2.44 3.97-4.64 8-6.27 12.2zm214.2 11.23c-12.5 0-26.86 11.4-25.37 24.93a10.23 10.23 0 0 0 .92 3.29c1.04 2.06 2.7 3.64 4.94 4.74 25.1 12.22 50.8-32.96 19.5-32.96zm-10.94 28.55c-9.23 0 2.46-17.42 5.92-20.22 2.08-1.7 4.3-2.53 6.63-2.53 9.43-.01-3.07 22.75-12.55 22.75zm-105.36-9c4.52-.17 8.8-.33 13.3-1.25 4.38-.92 7.6-2.17 9.65-3.75 2.5-1.93 3.9-3.95 4.25-6.05.12-.75.1-1.45-.06-2.1a6.96 6.96 0 0 0-.84-1.97c-.77-1.4-2.07-2.43-3.88-3.1-1.8-.8-3.86-1.18-6.2-1.18-3.1 0-6.22.5-9.32 1.5s-6 2.44-8.72 4.3a26.06 26.06 0 0 0-6.8 6.77c-1.82 2.65-2.97 5.45-3.46 8.4-.34 2.06-.23 3.88.33 5.46 5.4 13.08 25.53 8.2 33.56 1.4 3.55-3.5 1.67-7.02-3.6-4.32-3.45 2.22-7.5 5.48-13.04 4.9-4.4-.46-6.26-2.46-5.44-7.37l.26-1.66zm7.28-11.58c2.23-1.84 4.35-2.76 6.37-2.76 1 0 1.83.3 2.47.85.62.66.86 1.42.72 2.3-.3 1.75-1.84 3.33-4.64 4.74-3.04 1.4-6.05 1.7-9.28 1.7h-.82c1.22-2.72 2.95-5 5.18-6.84zm33.48 19.8c-1.03.72-3.48-.01-2.7-3.08l13.46-38.74h-3.64c-1.3.57-3.55 1.05-6.8 1.45l-6.93.6-1.86 5.4c3.52.3 5 1.3 4.45 2.96l-9.9 28.66c-2.93 8.5 5.02 10.13 8.8 9.65 4.12-.53 5.2-1 8.68-3.08 2.98-1.8 2.64-8.2-3.57-3.8zm45.57-25.72c-1.95-1.24-4.23-1.85-6.84-1.85-2.34 0-4.62.47-6.87 1.42-2.16.9-3.9 2-5.2 3.3l6.77-18.98h-2.68c-3.9 1.36-8.33 2.04-13.32 2.04l-1.98 5.26 2.52.53c.83.26 1.37.55 1.64.85s.28.8.03 1.45l-1.4 4.15-4 11.74-7.76 22.17h10.13l.85-2.46c2.25 1.9 4.9 2.85 8.53 2.85 2.7 0 5.4-.55 8.1-1.66 2.7-1.1 5.15-2.58 7.34-4.45s4.03-4 5.53-6.4c3.67-5.8 5.13-15.86-1.38-19.96zm-7.4 11.13c-.6 3.68-2.13 7.15-4.55 10.4-2.65 3.5-5.57 5.26-8.78 5.26-2.47 0-5.17-.9-5.75-2.1 1.94-5.88 4-10.68 6.18-14.4 2.5-4.03 6.45-5.74 9.52-5.74 3 0 4.1 2.2 3.38 6.58zm-125.53-12.5h-9.7l-1.02 2.43c-2.25-1.9-5.2-2.83-8.8-2.83-2.7 0-5.4.55-8.1 1.66-2.7 1.1-5.15 2.58-7.34 4.45s-4.03 4-5.53 6.4c-3.63 5.8-5.1 15.87 1.42 19.97 1.95 1.24 4.23 1.85 6.84 1.85 2.34 0 4.62-.47 6.87-1.42 2.24-.94 4.02-2.1 5.35-3.44.03 1.45.48 2.8 1.85 3.7 1.36.9 2.53 1.5 5.53 1.53 2.5.02 4.96-.54 7.88-2.13 5.3-2.84 5.34-8.2-.06-5.77-3.52 1.6-4.46.82-3.57-2.4l8.38-24zm-18.1 18.95c-1.48 2.74-3.1 4.83-4.86 6.3-1.07.83-2.03 1.45-2.9 1.82-.86.37-1.7.56-2.5.56-1.18-.13-2.1-.6-2.77-1.42-3.66-4.46 3.04-15.36 6.5-18.52 1.86-1.7 3.87-2.54 6.02-2.54 1.6 0 3.4.75 5.4 2.25-2.32 5.85-3.96 9.7-4.9 11.56zm57-14.53c.26-1.53-.17-2.72-1.26-3.55-1.1-.83-2.7-1.25-4.8-1.25-1.97 0-4 .46-6.07 1.38s-3.86 2.17-5.36 3.75l-.25-.13 1.73-4.6h-3.37a12.48 12.48 0 0 1-2.5.99c-.8.22-1.78.4-2.9.53l-2.12.33-1.36.13-1.5.2h-2.96l-2 5.4c1.65 0 2.78.2 3.4.6.6.48.83 1.23.66 2.24l-.36 1.32-7.73 21.7h11l5.6-15.46c1.18-3.25 4.62-10.6 8.9-10.6.78 0 1.3.15 1.57.46.58.66 1.23 1.15 1.95 1.48s1.6.5 2.67.5c.82 0 1.62-.1 2.4-.33s1.52-.6 2.26-1.18c1.36-1.03 2.17-2.32 2.43-3.9z"/></svg>